#tb 0: 1/25
#media_type 0: video
#codec_id 0: rawvideo
#dimensions 0: 352x288
#sar 0: 0/1
0,          0,          0,        1,   152064, 0x0fc489ef
0,          1,          1,        1,   152064, 0x163f6551
0,          2,          2,        1,   152064, 0xc9e2f64a
0,          3,          3,        1,   152064, 0x285180b0
0,          4,          4,        1,   152064, 0x07beb652
0,          5,          5,        1,   152064, 0x728ca8e6
0,          6,          6,        1,   152064, 0x0c227c23
0,          7,          7,        1,   152064, 0x881e8bac
0,          8,          8,        1,   152064, 0xa2fe8026
0,          9,          9,        1,   152064, 0x69d43915
0,         10,         10,        1,   152064, 0x19be4760
0,         11,         11,        1,   152064, 0x4537fcd5
0,         12,         12,        1,   152064, 0xc54aad61
0,         13,         13,        1,   152064, 0x05b5a223
0,         14,         14,        1,   152064, 0x31048ddd
0,         15,         15,        1,   152064, 0x45e90f05
0,         16,         16,        1,   152064, 0x3f014e18
0,         17,         17,        1,   152064, 0x750c38c8
0,         18,         18,        1,   152064, 0x739d6acc
0,         19,         19,        1,   152064, 0x6834dbff
0,         20,         20,        1,   152064, 0x0ecaf570
0,         21,         21,        1,   152064, 0xe4e12412
0,         22,         22,        1,   152064, 0x7c5c1d59
0,         23,         23,        1,   152064, 0xc8b868ef
0,         24,         24,        1,   152064, 0x7159f9d6
0,         25,         25,        1,   152064, 0xacc19936
0,         26,         26,        1,   152064, 0x514a96b5
0,         27,         27,        1,   152064, 0xd683d887
0,         28,         28,        1,   152064, 0x14f6a455
0,         29,         29,        1,   152064, 0x40aa650e
0,         30,         30,        1,   152064, 0xfe576aca
0,         31,         31,        1,   152064, 0x9c55c51e
0,         32,         32,        1,   152064, 0x1147fc8d
0,         33,         33,        1,   152064, 0x61737a30
0,         34,         34,        1,   152064, 0x96174378
0,         35,         35,        1,   152064, 0xaf6394fb
0,         36,         36,        1,   152064, 0x661837ab
0,         37,         37,        1,   152064, 0x493801f8
0,         38,         38,        1,   152064, 0x51f4594c
0,         39,         39,        1,   152064, 0x9d504edd
0,         40,         40,        1,   152064, 0xe2bd5925
0,         41,         41,        1,   152064, 0x24939e08
0,         42,         42,        1,   152064, 0x585cbfa9
0,         43,         43,        1,   152064, 0xbaa920ec
0,         44,         44,        1,   152064, 0xba3b0471
0,         45,         45,        1,   152064, 0x90687e73
0,         46,         46,        1,   152064, 0x4d1953ff
0,         47,         47,        1,   152064, 0x81b8c5c2
0,         48,         48,        1,   152064, 0x98bfb483
0,         49,         49,        1,   152064, 0x00a0d8ea
